<?xml version="1.0" encoding="utf-8"?>
<svg viewBox="800 1100 152.144 125.294" xmlns="http://www.w3.org/2000/svg">
  <path d="M 817.994 1213.131 L 888.462 1213.131 C 887.879 1212.079 887.349 1211.006 886.873 1209.914 C 886.398 1208.822 886.002 1207.682 885.687 1206.496 L 817.622 1206.496 C 814.017 1206.496 811.279 1205.571 809.409 1203.722 C 807.54 1201.872 806.605 1199.114 806.605 1195.448 L 806.605 1138.742 C 806.605 1135.076 807.54 1132.31 809.409 1130.444 C 811.279 1128.578 814.017 1127.644 817.622 1127.644 L 906.737 1127.644 C 910.262 1127.644 912.985 1128.578 914.905 1130.444 C 916.825 1132.31 917.785 1135.076 917.785 1138.742 L 917.785 1156.917 C 918.482 1156.843 919.095 1156.791 919.625 1156.761 C 920.154 1156.731 920.7 1156.716 921.263 1156.716 C 922.208 1156.716 923.251 1156.766 924.39 1156.867 L 924.39 1117.853 C 924.39 1112.003 922.88 1107.565 919.861 1104.539 C 916.842 1101.513 912.353 1100 906.396 1100 L 817.994 1100 C 812.056 1100 807.573 1101.505 804.544 1104.514 C 801.515 1107.523 800 1111.969 800 1117.853 L 800 1195.227 C 800 1201.145 801.515 1205.608 804.544 1208.617 C 807.573 1211.626 812.056 1213.131 817.994 1213.131 Z M 849.519 1149.901 L 853.218 1149.901 C 854.183 1149.901 854.81 1149.757 855.098 1149.468 C 855.386 1149.18 855.53 1148.58 855.53 1147.669 L 855.53 1143.97 C 855.53 1143.058 855.386 1142.458 855.098 1142.17 C 854.81 1141.882 854.183 1141.738 853.218 1141.738 L 849.519 1141.738 C 848.574 1141.738 847.965 1141.882 847.694 1142.17 C 847.423 1142.458 847.287 1143.058 847.287 1143.97 L 847.287 1147.669 C 847.287 1148.58 847.423 1149.18 847.694 1149.468 C 847.965 1149.757 848.574 1149.901 849.519 1149.901 Z M 871.172 1149.901 L 874.871 1149.901 C 875.782 1149.901 876.382 1149.757 876.67 1149.468 C 876.958 1149.18 877.103 1148.58 877.103 1147.669 L 877.103 1143.97 C 877.103 1143.058 876.958 1142.458 876.67 1142.17 C 876.382 1141.882 875.782 1141.738 874.871 1141.738 L 871.172 1141.738 C 870.207 1141.738 869.572 1141.882 869.267 1142.17 C 868.962 1142.458 868.809 1143.058 868.809 1143.97 L 868.809 1147.669 C 868.809 1148.58 868.962 1149.18 869.267 1149.468 C 869.572 1149.757 870.207 1149.901 871.172 1149.901 Z M 892.694 1149.901 L 896.393 1149.901 C 897.338 1149.901 897.968 1149.757 898.283 1149.468 C 898.598 1149.18 898.756 1148.58 898.756 1147.669 L 898.756 1143.97 C 898.756 1143.058 898.598 1142.458 898.283 1142.17 C 897.968 1141.882 897.338 1141.738 896.393 1141.738 L 892.694 1141.738 C 891.783 1141.738 891.178 1141.882 890.879 1142.17 C 890.581 1142.458 890.432 1143.058 890.432 1143.97 L 890.432 1147.669 C 890.432 1148.58 890.581 1149.18 890.879 1149.468 C 891.178 1149.757 891.783 1149.901 892.694 1149.901 Z M 827.946 1171.152 L 831.645 1171.152 C 832.59 1171.152 833.22 1171.007 833.535 1170.719 C 833.85 1170.431 834.008 1169.831 834.008 1168.92 L 834.008 1165.221 C 834.008 1164.309 833.85 1163.709 833.535 1163.421 C 833.22 1163.133 832.59 1162.989 831.645 1162.989 L 827.946 1162.989 C 827.034 1162.989 826.421 1163.133 826.106 1163.421 C 825.791 1163.709 825.634 1164.309 825.634 1165.221 L 825.634 1168.92 C 825.634 1169.831 825.791 1170.431 826.106 1170.719 C 826.421 1171.007 827.034 1171.152 827.946 1171.152 Z M 849.519 1171.152 L 853.218 1171.152 C 854.183 1171.152 854.81 1171.007 855.098 1170.719 C 855.386 1170.431 855.53 1169.831 855.53 1168.92 L 855.53 1165.221 C 855.53 1164.309 855.386 1163.709 855.098 1163.421 C 854.81 1163.133 854.183 1162.989 853.218 1162.989 L 849.519 1162.989 C 848.574 1162.989 847.965 1163.133 847.694 1163.421 C 847.423 1163.709 847.287 1164.309 847.287 1165.221 L 847.287 1168.92 C 847.287 1169.831 847.423 1170.431 847.694 1170.719 C 847.965 1171.007 848.574 1171.152 849.519 1171.152 Z M 871.172 1171.152 L 874.871 1171.152 C 875.782 1171.152 876.382 1171.007 876.67 1170.719 C 876.958 1170.431 877.103 1169.831 877.103 1168.92 L 877.103 1165.221 C 877.103 1164.309 876.958 1163.709 876.67 1163.421 C 876.382 1163.133 875.782 1162.989 874.871 1162.989 L 871.172 1162.989 C 870.207 1162.989 869.572 1163.133 869.267 1163.421 C 868.962 1163.709 868.809 1164.309 868.809 1165.221 L 868.809 1168.92 C 868.809 1169.831 868.962 1170.431 869.267 1170.719 C 869.572 1171.007 870.207 1171.152 871.172 1171.152 Z M 827.946 1192.403 L 831.645 1192.403 C 832.59 1192.403 833.22 1192.267 833.535 1191.995 C 833.85 1191.724 834.008 1191.116 834.008 1190.171 L 834.008 1186.472 C 834.008 1185.56 833.85 1184.969 833.535 1184.697 C 833.22 1184.426 832.59 1184.29 831.645 1184.29 L 827.946 1184.29 C 827.034 1184.29 826.421 1184.426 826.106 1184.697 C 825.791 1184.969 825.634 1185.56 825.634 1186.472 L 825.634 1190.171 C 825.634 1191.116 825.791 1191.724 826.106 1191.995 C 826.421 1192.267 827.034 1192.403 827.946 1192.403 Z M 849.519 1192.403 L 853.218 1192.403 C 854.183 1192.403 854.81 1192.267 855.098 1191.995 C 855.386 1191.724 855.53 1191.116 855.53 1190.171 L 855.53 1186.472 C 855.53 1185.56 855.386 1184.969 855.098 1184.697 C 854.81 1184.426 854.183 1184.29 853.218 1184.29 L 849.519 1184.29 C 848.574 1184.29 847.965 1184.426 847.694 1184.697 C 847.423 1184.969 847.287 1185.56 847.287 1186.472 L 847.287 1190.171 C 847.287 1191.116 847.423 1191.724 847.694 1191.995 C 847.965 1192.267 848.574 1192.403 849.519 1192.403 Z M 871.172 1192.403 L 874.871 1192.403 C 875.782 1192.403 876.382 1192.267 876.67 1191.995 C 876.958 1191.724 877.103 1191.116 877.103 1190.171 L 877.103 1186.472 C 877.103 1185.56 876.958 1184.969 876.67 1184.697 C 876.382 1184.426 875.782 1184.29 874.871 1184.29 L 871.172 1184.29 C 870.207 1184.29 869.572 1184.426 869.267 1184.697 C 868.962 1184.969 868.809 1185.56 868.809 1186.472 L 868.809 1190.171 C 868.809 1191.116 868.962 1191.724 869.267 1191.995 C 869.572 1192.267 870.207 1192.403 871.172 1192.403 Z M 921.112 1225.294 C 926.755 1225.294 931.926 1223.895 936.623 1221.097 C 941.321 1218.3 945.082 1214.557 947.907 1209.869 C 950.732 1205.181 952.144 1200.006 952.144 1194.343 C 952.144 1188.66 950.745 1183.474 947.948 1178.786 C 945.15 1174.099 941.407 1170.361 936.719 1167.573 C 932.031 1164.785 926.829 1163.391 921.112 1163.391 C 915.517 1163.391 910.367 1164.785 905.662 1167.573 C 900.957 1170.361 897.198 1174.099 894.383 1178.786 C 891.568 1183.474 890.161 1188.66 890.161 1194.343 C 890.161 1200.026 891.568 1205.211 894.383 1209.899 C 897.198 1214.587 900.957 1218.325 905.662 1221.113 C 910.367 1223.9 915.517 1225.294 921.112 1225.294 Z M 921.163 1214.176 C 920.178 1214.176 919.402 1213.88 918.835 1213.287 C 918.269 1212.694 917.986 1211.931 917.986 1211 L 917.986 1197.519 L 904.506 1197.519 C 903.587 1197.519 902.828 1197.231 902.229 1196.655 C 901.629 1196.078 901.329 1195.308 901.329 1194.343 C 901.329 1193.378 901.629 1192.607 902.229 1192.031 C 902.828 1191.454 903.587 1191.166 904.506 1191.166 L 917.986 1191.166 L 917.986 1177.736 C 917.986 1176.838 918.269 1176.084 918.835 1175.474 C 919.402 1174.864 920.178 1174.559 921.163 1174.559 C 922.094 1174.559 922.835 1174.864 923.384 1175.474 C 923.934 1176.084 924.209 1176.838 924.209 1177.736 L 924.209 1191.166 L 937.739 1191.166 C 938.657 1191.166 939.408 1191.454 939.991 1192.031 C 940.574 1192.607 940.866 1193.378 940.866 1194.343 C 940.866 1195.308 940.574 1196.078 939.991 1196.655 C 939.408 1197.231 938.657 1197.519 937.739 1197.519 L 924.209 1197.519 L 924.209 1211 C 924.209 1211.931 923.934 1212.694 923.384 1213.287 C 922.835 1213.88 922.094 1214.176 921.163 1214.176 Z"/>
</svg>