<?xml version="1.0" encoding="utf-8"?>
<svg viewBox="1079.614 1464.288 147.029 113.139" xmlns="http://www.w3.org/2000/svg">
  <path d="M 1079.614 1559.545 C 1079.614 1565.459 1081.127 1569.918 1084.153 1572.922 C 1087.179 1575.925 1091.66 1577.427 1097.597 1577.427 L 1208.66 1577.427 C 1214.641 1577.427 1219.134 1575.91 1222.137 1572.875 C 1225.141 1569.84 1226.643 1565.396 1226.643 1559.545 L 1226.643 1482.17 C 1226.643 1476.318 1225.141 1471.875 1222.137 1468.84 C 1219.134 1465.805 1214.641 1464.288 1208.66 1464.288 L 1097.597 1464.288 C 1091.66 1464.288 1087.179 1465.79 1084.153 1468.793 C 1081.127 1471.797 1079.614 1476.256 1079.614 1482.17 L 1079.614 1559.545 Z M 1097.345 1483.534 C 1096.025 1483.534 1094.906 1483.063 1093.987 1482.122 C 1093.068 1481.18 1092.609 1480.077 1092.609 1478.811 C 1092.609 1477.568 1093.068 1476.476 1093.987 1475.534 C 1094.906 1474.593 1096.025 1474.122 1097.345 1474.122 C 1098.633 1474.122 1099.742 1474.593 1100.672 1475.534 C 1101.602 1476.476 1102.067 1477.568 1102.067 1478.811 C 1102.067 1480.077 1101.602 1481.18 1100.672 1482.122 C 1099.742 1483.063 1098.633 1483.534 1097.345 1483.534 Z M 1113.179 1483.534 C 1111.891 1483.534 1110.782 1483.063 1109.852 1482.122 C 1108.921 1481.18 1108.456 1480.077 1108.456 1478.811 C 1108.456 1477.568 1108.921 1476.476 1109.852 1475.534 C 1110.782 1474.593 1111.891 1474.122 1113.179 1474.122 C 1114.445 1474.122 1115.543 1474.593 1116.473 1475.534 C 1117.403 1476.476 1117.868 1477.568 1117.868 1478.811 C 1117.868 1480.077 1117.403 1481.18 1116.473 1482.122 C 1115.543 1483.063 1114.445 1483.534 1113.179 1483.534 Z M 1129.026 1483.487 C 1127.707 1483.487 1126.583 1483.024 1125.652 1482.098 C 1124.722 1481.172 1124.257 1480.077 1124.257 1478.811 C 1124.257 1477.568 1124.722 1476.476 1125.652 1475.534 C 1126.583 1474.593 1127.707 1474.122 1129.026 1474.122 C 1130.315 1474.122 1131.418 1474.593 1132.337 1475.534 C 1133.256 1476.476 1133.716 1477.568 1133.716 1478.811 C 1133.716 1480.077 1133.256 1481.172 1132.337 1482.098 C 1131.418 1483.024 1130.315 1483.487 1129.026 1483.487 Z M 1086.24 1559.216 L 1086.24 1493.334 L 1220.017 1493.334 L 1220.017 1559.216 C 1220.017 1563.051 1219.016 1565.935 1217.013 1567.868 C 1215.011 1569.801 1212.173 1570.767 1208.499 1570.767 L 1097.758 1570.767 C 1093.99 1570.767 1091.128 1569.801 1089.173 1567.868 C 1087.218 1565.935 1086.24 1563.051 1086.24 1559.216 Z"/>
</svg>