<?xml version="1.0" encoding="utf-8"?>
<svg viewBox="0 0 69.8 69.8" xmlns="http://www.w3.org/2000/svg">
  <path d="M 11.6 69.8 L 58.2 69.8 C 62.066 69.8 64.966 68.833 66.9 66.9 C 68.833 64.967 69.8 62.1 69.8 58.3 L 69.8 11.5 C 69.8 7.7 68.833 4.833 66.9 2.9 C 64.966 0.967 62.066 0 58.2 0 L 11.6 0 C 7.733 0 4.833 0.967 2.9 2.9 C 0.966 4.833 0 7.7 0 11.5 L 0 58.3 C 0 62.1 0.966 64.967 2.9 66.9 C 4.833 68.833 7.733 69.8 11.6 69.8 Z M 25.9 30.9 L 22.6 30.9 C 20.4 30.9 18.5 30.1 16.9 28.5 C 15.3 26.967 14.5 25.067 14.5 22.8 C 14.5 20.6 15.3 18.7 16.9 17.1 C 18.433 15.5 20.333 14.7 22.6 14.7 C 24.866 14.7 26.766 15.5 28.3 17.1 C 29.9 18.7 30.7 20.6 30.7 22.8 L 30.7 26.2 L 38.5 26.2 L 38.5 22.8 C 38.5 20.6 39.3 18.7 40.9 17.1 C 42.5 15.5 44.433 14.7 46.7 14.7 C 48.966 14.7 50.866 15.5 52.4 17.1 C 54 18.7 54.8 20.6 54.8 22.8 C 54.8 25.067 54 26.967 52.4 28.5 C 50.8 30.1 48.9 30.9 46.7 30.9 L 43.4 30.9 L 43.4 38.8 L 46.7 38.8 C 48.9 38.8 50.8 39.6 52.4 41.2 C 54 42.733 54.8 44.633 54.8 46.9 C 54.8 49.167 54 51.067 52.4 52.6 C 50.866 54.2 48.966 55 46.7 55 C 44.433 55 42.5 54.2 40.9 52.6 C 39.3 51 38.5 49.1 38.5 46.9 L 38.5 43.6 L 30.7 43.6 L 30.7 46.9 C 30.7 49.1 29.9 51 28.3 52.6 C 26.766 54.2 24.866 55 22.6 55 C 20.333 55 18.433 54.2 16.9 52.6 C 15.3 51.067 14.5 49.167 14.5 46.9 C 14.5 44.633 15.3 42.733 16.9 41.2 C 18.5 39.6 20.4 38.8 22.6 38.8 L 25.9 38.8 L 25.9 30.9 Z M 30.7 38.9 L 38.5 38.9 L 38.5 30.9 L 30.7 30.9 L 30.7 38.9 Z M 22.6 26.2 L 25.9 26.2 L 25.9 22.8 C 25.9 21.933 25.566 21.167 24.9 20.5 C 24.3 19.833 23.533 19.5 22.6 19.5 C 21.733 19.5 20.966 19.833 20.3 20.5 C 19.633 21.167 19.3 21.933 19.3 22.8 C 19.3 23.733 19.6 24.533 20.2 25.2 C 20.866 25.867 21.666 26.2 22.6 26.2 Z M 46.7 26.2 C 47.633 26.2 48.4 25.867 49 25.2 C 49.666 24.533 50 23.733 50 22.8 C 50 21.933 49.666 21.167 49 20.5 C 48.333 19.833 47.566 19.5 46.7 19.5 C 45.766 19.5 44.966 19.833 44.3 20.5 C 43.7 21.167 43.4 21.933 43.4 22.8 L 43.4 26.2 L 46.7 26.2 Z M 22.6 43.5 C 21.733 43.5 20.966 43.833 20.3 44.5 C 19.633 45.167 19.3 45.967 19.3 46.9 C 19.3 47.833 19.6 48.6 20.2 49.2 C 20.866 49.867 21.666 50.2 22.6 50.2 C 23.533 50.2 24.3 49.867 24.9 49.2 C 25.566 48.533 25.9 47.767 25.9 46.9 L 25.9 43.5 L 22.6 43.5 Z M 46.7 43.5 L 43.4 43.5 L 43.4 46.9 C 43.4 47.767 43.7 48.533 44.3 49.2 C 44.966 49.867 45.766 50.2 46.7 50.2 C 47.633 50.2 48.4 49.867 49 49.2 C 49.666 48.6 50 47.833 50 46.9 C 50 45.967 49.666 45.167 49 44.5 C 48.333 43.833 47.566 43.5 46.7 43.5 Z"/>
</svg>