<?xml version="1.0" encoding="utf-8"?>
<svg viewBox="1090.944 1464.296 124.39 113.13" xmlns="http://www.w3.org/2000/svg">
  <path d="M 1108.938 1577.426 L 1197.34 1577.426 C 1203.297 1577.426 1207.786 1575.905 1210.805 1572.863 C 1213.824 1569.82 1215.334 1565.373 1215.334 1559.523 L 1215.334 1482.149 C 1215.334 1476.298 1213.824 1471.86 1210.805 1468.834 C 1207.786 1465.808 1203.297 1464.296 1197.34 1464.296 L 1108.938 1464.296 C 1103 1464.296 1098.517 1465.8 1095.488 1468.809 C 1092.459 1471.818 1090.944 1476.265 1090.944 1482.149 L 1090.944 1559.523 C 1090.944 1565.44 1092.459 1569.904 1095.488 1572.913 C 1098.517 1575.922 1103 1577.426 1108.938 1577.426 Z M 1108.566 1570.792 C 1104.961 1570.792 1102.223 1569.867 1100.353 1568.017 C 1098.484 1566.167 1097.549 1563.41 1097.549 1559.744 L 1097.549 1503.038 C 1097.549 1499.372 1098.484 1496.606 1100.353 1494.74 C 1102.223 1492.873 1104.961 1491.94 1108.566 1491.94 L 1197.681 1491.94 C 1201.206 1491.94 1203.929 1492.873 1205.849 1494.74 C 1207.769 1496.606 1208.729 1499.372 1208.729 1503.038 L 1208.729 1559.744 C 1208.729 1563.41 1207.769 1566.167 1205.849 1568.017 C 1203.929 1569.867 1201.206 1570.792 1197.681 1570.792 L 1108.566 1570.792 Z M 1118.126 1514.508 L 1188.131 1514.508 C 1188.916 1514.508 1189.581 1514.238 1190.127 1513.699 C 1190.673 1513.159 1190.946 1512.507 1190.946 1511.743 C 1190.946 1510.999 1190.673 1510.363 1190.127 1509.833 C 1189.581 1509.304 1188.916 1509.039 1188.131 1509.039 L 1118.126 1509.039 C 1117.342 1509.039 1116.685 1509.304 1116.156 1509.833 C 1115.626 1510.363 1115.362 1510.999 1115.362 1511.743 C 1115.362 1512.507 1115.626 1513.159 1116.156 1513.699 C 1116.685 1514.238 1117.342 1514.508 1118.126 1514.508 Z M 1118.126 1534.05 L 1188.131 1534.05 C 1188.916 1534.05 1189.581 1533.793 1190.127 1533.281 C 1190.673 1532.768 1190.946 1532.14 1190.946 1531.396 C 1190.946 1530.632 1190.673 1529.989 1190.127 1529.466 C 1189.581 1528.943 1188.916 1528.682 1188.131 1528.682 L 1118.126 1528.682 C 1117.342 1528.682 1116.685 1528.943 1116.156 1529.466 C 1115.626 1529.989 1115.362 1530.632 1115.362 1531.396 C 1115.362 1532.14 1115.626 1532.768 1116.156 1533.281 C 1116.685 1533.793 1117.342 1534.05 1118.126 1534.05 Z M 1118.126 1553.692 L 1164.005 1553.692 C 1164.79 1553.692 1165.455 1553.428 1166.001 1552.898 C 1166.547 1552.369 1166.82 1551.732 1166.82 1550.988 C 1166.82 1550.224 1166.547 1549.572 1166.001 1549.033 C 1165.455 1548.493 1164.79 1548.224 1164.005 1548.224 L 1118.126 1548.224 C 1117.342 1548.224 1116.685 1548.493 1116.156 1549.033 C 1115.626 1549.572 1115.362 1550.224 1115.362 1550.988 C 1115.362 1551.732 1115.626 1552.369 1116.156 1552.898 C 1116.685 1553.428 1117.342 1553.692 1118.126 1553.692 Z"/>
</svg>