<?xml version="1.0" encoding="utf-8"?>
<svg viewBox="1090.944 1464.296 152.144 125.294" xmlns="http://www.w3.org/2000/svg">
  <path d="M 1108.938 1577.426 L 1179.406 1577.426 C 1178.823 1576.374 1178.293 1575.302 1177.817 1574.21 C 1177.342 1573.117 1176.946 1571.978 1176.631 1570.792 L 1108.566 1570.792 C 1104.961 1570.792 1102.223 1569.867 1100.353 1568.017 C 1098.484 1566.167 1097.549 1563.41 1097.549 1559.744 L 1097.549 1503.038 C 1097.549 1499.372 1098.484 1496.606 1100.353 1494.74 C 1102.223 1492.873 1104.961 1491.94 1108.566 1491.94 L 1197.681 1491.94 C 1201.206 1491.94 1203.929 1492.873 1205.849 1494.74 C 1207.769 1496.606 1208.729 1499.372 1208.729 1503.038 L 1208.729 1521.213 C 1209.426 1521.139 1210.039 1521.087 1210.569 1521.057 C 1211.098 1521.027 1211.644 1521.012 1212.207 1521.012 C 1213.152 1521.012 1214.195 1521.062 1215.334 1521.162 L 1215.334 1482.149 C 1215.334 1476.298 1213.824 1471.86 1210.805 1468.834 C 1207.786 1465.808 1203.297 1464.296 1197.34 1464.296 L 1108.938 1464.296 C 1103 1464.296 1098.517 1465.8 1095.488 1468.809 C 1092.459 1471.818 1090.944 1476.265 1090.944 1482.149 L 1090.944 1559.523 C 1090.944 1565.44 1092.459 1569.904 1095.488 1572.913 C 1098.517 1575.922 1103 1577.426 1108.938 1577.426 Z M 1118.076 1514.508 L 1188.182 1514.508 C 1188.946 1514.508 1189.593 1514.238 1190.122 1513.699 C 1190.651 1513.159 1190.916 1512.507 1190.916 1511.743 C 1190.916 1510.999 1190.651 1510.363 1190.122 1509.833 C 1189.593 1509.304 1188.946 1509.039 1188.182 1509.039 L 1118.076 1509.039 C 1117.292 1509.039 1116.643 1509.304 1116.131 1509.833 C 1115.618 1510.363 1115.362 1510.999 1115.362 1511.743 C 1115.362 1512.507 1115.618 1513.159 1116.131 1513.699 C 1116.643 1514.238 1117.292 1514.508 1118.076 1514.508 Z M 1118.126 1534.1 L 1183.708 1534.1 C 1184.505 1533.075 1185.325 1532.106 1186.166 1531.195 C 1187.007 1530.283 1187.931 1529.446 1188.936 1528.682 L 1118.126 1528.682 C 1117.342 1528.682 1116.685 1528.943 1116.156 1529.466 C 1115.626 1529.989 1115.362 1530.632 1115.362 1531.396 C 1115.362 1532.14 1115.626 1532.777 1116.156 1533.306 C 1116.685 1533.835 1117.342 1534.1 1118.126 1534.1 Z M 1118.126 1553.692 L 1164.005 1553.692 C 1164.803 1553.692 1165.466 1553.428 1165.996 1552.898 C 1166.525 1552.369 1166.79 1551.732 1166.79 1550.988 C 1166.79 1550.224 1166.525 1549.581 1165.996 1549.058 C 1165.466 1548.535 1164.803 1548.274 1164.005 1548.274 L 1118.126 1548.274 C 1117.342 1548.274 1116.685 1548.535 1116.156 1549.058 C 1115.626 1549.581 1115.362 1550.224 1115.362 1550.988 C 1115.362 1551.732 1115.626 1552.369 1116.156 1552.898 C 1116.685 1553.428 1117.342 1553.692 1118.126 1553.692 Z M 1212.056 1589.59 C 1217.699 1589.59 1222.87 1588.191 1227.567 1585.393 C 1232.265 1582.595 1236.026 1578.852 1238.851 1574.164 C 1241.676 1569.477 1243.088 1564.301 1243.088 1558.638 C 1243.088 1552.955 1241.689 1547.77 1238.892 1543.082 C 1236.094 1538.394 1232.351 1534.656 1227.663 1531.868 C 1222.975 1529.081 1217.773 1527.687 1212.056 1527.687 C 1206.461 1527.687 1201.311 1529.081 1196.606 1531.868 C 1191.901 1534.656 1188.142 1538.394 1185.327 1543.082 C 1182.512 1547.77 1181.105 1552.955 1181.105 1558.638 C 1181.105 1564.321 1182.512 1569.507 1185.327 1574.195 C 1188.142 1578.882 1191.901 1582.62 1196.606 1585.408 C 1201.311 1588.196 1206.461 1589.59 1212.056 1589.59 Z M 1212.107 1578.472 C 1211.122 1578.472 1210.346 1578.175 1209.779 1577.582 C 1209.213 1576.989 1208.93 1576.227 1208.93 1575.295 L 1208.93 1561.815 L 1195.45 1561.815 C 1194.531 1561.815 1193.772 1561.527 1193.173 1560.95 C 1192.573 1560.374 1192.273 1559.603 1192.273 1558.638 C 1192.273 1557.673 1192.573 1556.902 1193.173 1556.326 C 1193.772 1555.75 1194.531 1555.462 1195.45 1555.462 L 1208.93 1555.462 L 1208.93 1542.032 C 1208.93 1541.134 1209.213 1540.38 1209.779 1539.77 C 1210.346 1539.16 1211.122 1538.855 1212.107 1538.855 C 1213.038 1538.855 1213.779 1539.16 1214.328 1539.77 C 1214.878 1540.38 1215.153 1541.134 1215.153 1542.032 L 1215.153 1555.462 L 1228.683 1555.462 C 1229.601 1555.462 1230.352 1555.75 1230.935 1556.326 C 1231.518 1556.902 1231.81 1557.673 1231.81 1558.638 C 1231.81 1559.603 1231.518 1560.374 1230.935 1560.95 C 1230.352 1561.527 1229.601 1561.815 1228.683 1561.815 L 1215.153 1561.815 L 1215.153 1575.295 C 1215.153 1576.227 1214.878 1576.989 1214.328 1577.582 C 1213.779 1578.175 1213.038 1578.472 1212.107 1578.472 Z"/>
</svg>